<?xml version="1.0" standalone="no"?>
<!DOCTYPE svg PUBLIC "-//W3C//DTD SVG 20010904//EN"
 "http://www.w3.org/TR/2001/REC-SVG-20010904/DTD/svg10.dtd">
<svg version="1.0" xmlns="http://www.w3.org/2000/svg"
 width="1360.000000pt" height="1360.000000pt" viewBox="0 0 1360.000000 1360.000000"
 preserveAspectRatio="xMidYMid meet">
<metadata>
Created by potrace 1.14, written by Peter Selinger 2001-2017
</metadata>
<g transform="translate(0.000000,1360.000000) scale(0.100000,-0.100000)"
fill="#000000" stroke="none">
<path d="M2398 9314 c-2 -1 -17 -5 -33 -8 -17 -2 -30 -5 -30 -6 0 -1 -9 -3
-19 -5 -32 -6 -121 -37 -126 -44 -3 -3 -23 -15 -45 -26 -53 -26 -58 -30 -142
-113 -40 -40 -80 -87 -89 -105 -9 -17 -20 -34 -24 -37 -4 -3 -15 -27 -25 -55
-10 -27 -22 -54 -25 -60 -4 -5 -10 -26 -14 -45 -20 -108 -21 -126 -15 -272 2
-37 -2 -62 -12 -74 -7 -9 -13 -20 -11 -23 4 -10 -52 -131 -61 -131 -4 0 -6 -4
-2 -9 3 -5 -1 -15 -8 -23 -7 -7 -14 -15 -14 -18 -3 -18 -28 -60 -35 -60 -5 0
-7 -4 -3 -9 3 -5 -1 -15 -8 -23 -7 -7 -13 -15 -13 -18 0 -5 -64 -102 -73 -110
-4 -3 -17 -22 -31 -42 -14 -21 -29 -38 -33 -38 -5 0 -5 -4 -2 -10 3 -5 -1 -10
-9 -10 -9 0 -16 -4 -16 -9 0 -18 -169 -176 -221 -206 -10 -5 -55 -33 -101 -61
-80 -49 -210 -115 -292 -148 -23 -10 -51 -13 -70 -10 -45 9 -197 11 -201 3 -3
-3 -16 -5 -30 -4 -14 2 -25 0 -25 -3 0 -4 -13 -8 -29 -9 -31 -2 -174 -62 -179
-75 -2 -4 -10 -8 -18 -8 -8 0 -14 -4 -14 -8 0 -4 -12 -15 -28 -24 -39 -24
-102 -85 -95 -92 4 -3 1 -6 -5 -6 -19 0 -103 -139 -131 -218 -31 -88 -35 -115
-35 -232 0 -88 5 -123 29 -205 1 -5 3 -13 4 -18 2 -17 54 -113 65 -119 6 -4 7
-8 3 -8 -20 0 99 -131 170 -187 26 -21 130 -76 178 -94 55 -21 87 -28 155 -35
30 -3 67 -6 83 -8 15 -2 27 -1 27 3 0 12 135 5 165 -9 17 -7 32 -14 35 -15 23
-5 146 -69 152 -78 4 -7 8 -9 8 -4 0 7 142 -78 197 -120 18 -13 35 -24 37 -24
3 0 18 -12 34 -27 15 -15 58 -55 95 -89 37 -34 67 -67 67 -73 0 -6 4 -8 10 -5
5 3 10 1 10 -4 0 -6 22 -38 48 -71 27 -33 55 -72 62 -87 8 -15 25 -42 37 -59
13 -17 20 -34 16 -37 -3 -4 -1 -7 6 -7 7 0 9 -4 6 -10 -3 -5 -2 -10 3 -10 17
0 116 -216 108 -236 -3 -8 -8 -36 -12 -62 -3 -26 -8 -50 -10 -54 -2 -4 0 -9 6
-13 7 -4 7 -12 0 -24 -5 -10 -7 -20 -5 -22 3 -4 11 -53 18 -124 1 -11 5 -22 9
-25 4 -3 8 -17 10 -30 6 -36 42 -112 82 -172 35 -53 126 -154 126 -140 0 4 4
2 8 -3 24 -33 165 -111 237 -131 80 -22 204 -31 275 -20 95 14 190 43 190 58
0 5 4 7 9 4 11 -7 161 90 161 104 0 6 5 8 10 5 6 -3 10 -3 10 2 0 4 17 26 38
48 44 48 105 141 105 161 0 8 4 14 9 14 4 0 8 4 8 9 0 5 5 22 12 38 6 15 12
33 14 38 10 40 16 78 20 125 3 30 7 60 9 67 2 6 -1 14 -8 17 -9 3 -8 5 1 5 7
1 10 6 6 12 -4 7 -8 30 -9 53 -1 22 -5 48 -9 56 -3 8 -7 24 -9 35 -5 28 -14
50 -50 125 -31 65 -37 75 -69 111 -10 10 -18 24 -18 30 0 5 -4 7 -10 4 -5 -3
-10 0 -10 7 0 7 -13 23 -28 35 -15 12 -40 33 -57 47 -16 15 -42 32 -57 39 -16
6 -28 15 -28 19 0 5 -6 8 -12 8 -7 0 -25 6 -40 14 -37 20 -135 47 -169 48 -16
1 -29 4 -29 7 0 10 -108 4 -228 -13 -12 -2 -53 12 -90 30 -37 19 -73 34 -79
34 -7 0 -13 4 -13 8 0 5 -16 14 -35 22 -19 8 -35 17 -35 22 0 4 -3 7 -7 6 -10
-2 -69 31 -103 60 -15 12 -33 22 -39 22 -6 0 -11 5 -11 10 0 6 -5 10 -10 10
-6 0 -21 9 -33 20 -59 53 -92 80 -100 80 -4 0 -5 5 -2 10 3 6 2 10 -4 10 -10
0 -70 60 -100 102 -9 11 -24 28 -33 36 -10 9 -18 22 -18 29 0 7 -3 13 -8 13
-4 0 -18 18 -32 40 -14 22 -28 40 -33 40 -4 0 -6 4 -2 9 3 6 0 13 -7 18 -7 4
-24 31 -38 58 -13 28 -27 52 -30 55 -10 9 -70 137 -70 149 0 6 -5 11 -12 11
-6 0 -9 3 -5 6 3 4 -1 20 -9 36 -14 27 -17 80 -5 102 7 15 6 60 -3 74 -4 7 -3
12 1 12 9 0 8 29 -3 89 -4 25 2 54 22 105 16 39 32 73 36 74 5 2 8 8 8 13 0
22 85 181 126 236 13 17 24 35 24 38 0 12 131 175 141 175 5 0 9 4 9 10 0 14
71 81 145 134 22 16 42 32 45 35 6 8 41 29 60 38 8 4 17 9 20 13 3 3 26 17 53
30 26 14 47 28 47 32 0 5 8 8 19 8 10 0 30 9 45 21 14 11 30 18 35 15 5 -4 11
-2 13 2 4 11 140 68 152 64 6 -2 40 -5 78 -7 37 -2 72 -6 77 -9 5 -4 12 -2 16
4 4 6 10 8 15 5 4 -3 28 -1 53 4 50 9 41 12 212 -72 145 -71 145 -71 145 -79
0 -5 5 -8 11 -8 12 0 103 -60 107 -72 2 -4 10 -8 18 -8 8 0 14 -4 14 -9 0 -5
8 -12 18 -15 19 -6 175 -155 222 -212 42 -50 90 -122 90 -134 0 -6 5 -8 10 -5
5 3 10 0 10 -8 0 -8 9 -24 20 -37 11 -13 20 -29 20 -35 0 -7 7 -18 15 -25 8
-7 12 -16 9 -21 -3 -5 0 -9 5 -9 6 0 11 -7 11 -15 0 -8 5 -15 12 -15 6 0 9 -3
6 -6 -4 -3 11 -41 32 -83 27 -54 37 -87 34 -107 -2 -16 -6 -45 -8 -64 -3 -19
-5 -35 -6 -35 -7 0 -5 -47 2 -51 4 -3 4 -13 -2 -23 -5 -10 -7 -21 -4 -24 6 -5
12 -41 17 -97 1 -14 5 -27 9 -30 4 -3 9 -15 11 -25 2 -11 9 -30 15 -42 7 -13
10 -23 8 -23 -8 0 42 -88 73 -130 33 -45 95 -107 146 -146 47 -36 154 -92 187
-98 13 -3 23 -5 23 -6 0 -1 7 -3 15 -5 8 -2 26 -7 40 -10 14 -4 69 -8 122 -10
74 -2 114 1 170 17 40 11 83 22 96 25 12 3 22 10 22 15 0 5 4 7 9 4 5 -3 25 5
45 19 20 14 41 25 46 25 5 0 14 8 19 18 6 9 11 14 11 9 0 -8 62 45 94 82 12
13 27 29 34 37 6 7 12 15 12 19 0 3 9 15 20 27 11 12 20 28 20 35 0 7 4 13 9
13 5 0 12 14 16 30 4 17 11 30 17 30 6 0 9 3 5 6 -3 4 0 19 8 34 8 15 11 30 8
34 -4 3 -1 6 6 6 7 0 10 4 7 8 -3 4 0 28 6 53 12 54 11 289 -2 289 -3 0 -12
21 -19 48 -14 48 -56 132 -93 187 -28 40 -159 165 -174 165 -6 0 -19 9 -29 20
-10 11 -20 18 -23 15 -3 -3 -10 -1 -16 4 -12 10 -112 51 -137 56 -76 15 -105
18 -184 17 -85 0 -132 -6 -142 -16 -6 -6 -166 66 -175 79 -4 5 -8 6 -8 1 0 -5
-8 -3 -17 5 -10 8 -40 25 -66 39 -27 14 -57 33 -67 43 -11 9 -24 17 -30 17 -5
0 -18 7 -27 15 -10 9 -45 37 -78 62 -61 47 -202 183 -190 183 3 0 -5 10 -18
23 -27 24 -137 183 -137 196 0 5 -7 14 -15 21 -8 7 -12 16 -9 21 3 5 1 9 -3 9
-7 0 -53 80 -58 100 -1 3 -19 42 -41 87 -23 46 -38 85 -35 88 13 13 20 187 9
230 -4 17 -9 46 -12 65 -2 19 -5 36 -6 38 -2 1 -4 7 -5 12 -1 6 -4 12 -5 15
-1 3 -3 8 -4 13 -3 18 -62 130 -85 162 -41 56 -181 189 -181 172 0 -4 -4 -2
-8 4 -8 12 -133 72 -162 78 -3 1 -11 5 -18 10 -7 4 -16 6 -19 3 -3 -3 -17 -1
-32 5 -24 9 -216 20 -223 12z"/>
<path d="M4238 9275 c-2 -1 -28 -5 -58 -8 -73 -7 -140 -23 -176 -42 -16 -8
-33 -15 -38 -15 -37 0 -201 -133 -264 -215 -28 -35 -86 -150 -97 -191 -9 -31
-10 -34 -20 -79 -13 -53 -11 -218 3 -270 7 -27 15 -57 17 -65 2 -8 4 -16 5
-17 2 -2 3 -6 5 -10 14 -52 19 -63 27 -63 5 0 7 -4 4 -9 -3 -5 1 -14 9 -21 8
-7 15 -19 15 -26 0 -8 5 -14 12 -14 6 0 9 -3 5 -6 -3 -3 3 -15 13 -27 10 -12
28 -33 39 -46 12 -13 21 -28 21 -33 0 -4 5 -8 10 -8 6 0 21 -10 34 -22 56 -54
81 -69 211 -128 58 -26 227 -52 265 -40 11 3 117 12 145 12 16 0 31 -5 33 -11
2 -6 8 -11 14 -11 11 0 141 -64 203 -100 22 -13 51 -29 65 -37 14 -7 21 -13
15 -13 -5 0 5 -8 23 -17 74 -41 240 -190 302 -273 14 -18 31 -39 38 -46 6 -7
12 -16 12 -21 1 -4 14 -24 30 -43 17 -19 30 -40 30 -47 0 -7 5 -13 10 -13 6 0
10 -6 10 -14 0 -7 7 -19 15 -26 8 -7 13 -16 10 -20 -3 -5 -1 -10 4 -12 7 -2
71 -119 76 -138 1 -3 15 -34 32 -70 16 -36 27 -67 24 -70 -3 -3 -6 -29 -6 -57
0 -29 -2 -53 -5 -53 -3 0 -5 -11 -5 -25 0 -14 4 -25 9 -25 5 0 4 -6 -2 -13 -6
-7 -7 -18 -3 -25 4 -6 7 -36 6 -64 -1 -42 -13 -77 -56 -168 -51 -106 -143
-268 -159 -280 -4 -3 -9 -10 -11 -16 -15 -43 -173 -205 -264 -272 -33 -24 -62
-47 -65 -51 -3 -3 -22 -15 -42 -26 -21 -11 -38 -22 -38 -25 0 -3 -15 -12 -32
-19 -18 -8 -39 -21 -46 -28 -8 -7 -17 -11 -22 -8 -5 3 -10 1 -12 -3 -4 -10
-140 -77 -150 -74 -5 1 -8 -3 -8 -9 0 -5 -4 -8 -9 -4 -5 3 -12 1 -16 -5 -4 -6
-11 -8 -16 -5 -5 4 -9 1 -9 -6 0 -7 -3 -9 -7 -6 -3 4 -12 2 -18 -3 -8 -7 -27
-7 -51 -2 -41 8 -148 7 -221 -2 -29 -4 -43 -2 -43 6 0 6 -3 9 -6 6 -8 -9 -131
47 -239 107 -106 59 -261 166 -278 192 -4 7 -15 13 -22 13 -8 0 -15 7 -15 15
0 8 -3 15 -8 15 -14 0 -132 122 -132 137 0 5 -8 16 -17 25 -23 22 -32 33 -70
93 -18 28 -36 55 -41 60 -12 15 -124 243 -124 252 0 4 -4 13 -9 19 -5 6 -6 21
-3 35 3 13 6 31 6 39 0 8 5 20 10 27 5 7 5 14 -2 18 -6 3 -8 11 -4 16 8 13 11
79 4 79 -3 0 -6 17 -6 38 -3 62 -8 102 -14 102 -3 0 -6 9 -7 21 -3 33 -81 184
-113 218 -17 17 -28 31 -25 31 3 0 -16 20 -42 44 -27 25 -50 44 -53 43 -3 -1
-17 8 -30 21 -22 20 -97 60 -165 87 -81 33 -260 43 -360 20 -16 -4 -37 -8 -45
-10 -8 -2 -16 -4 -17 -5 -2 -2 -6 -3 -10 -5 -9 -2 -50 -19 -85 -35 -13 -6 -36
-19 -53 -30 -16 -11 -37 -23 -45 -27 -8 -4 -27 -19 -42 -35 -15 -15 -33 -28
-39 -28 -7 0 -9 -3 -6 -6 4 -4 -1 -14 -11 -23 -32 -29 -82 -98 -75 -105 3 -3
1 -6 -6 -6 -10 0 -35 -48 -31 -59 1 -2 -2 -7 -7 -10 -12 -8 -44 -93 -33 -86 5
3 1 -9 -8 -27 -21 -43 -24 -296 -3 -333 3 -5 6 -12 6 -15 7 -58 120 -260 145
-260 6 0 10 -4 10 -10 0 -9 47 -60 56 -60 3 0 17 -11 32 -25 15 -14 36 -28 47
-31 11 -4 23 -12 27 -18 4 -6 11 -11 15 -11 4 -1 30 -11 57 -23 27 -12 63 -25
79 -28 17 -2 34 -7 39 -10 4 -3 32 -7 60 -9 29 -2 55 -5 58 -6 9 -3 133 8 168
15 13 3 35 0 50 -6 15 -6 29 -12 32 -13 11 -2 145 -70 150 -76 3 -3 20 -11 38
-18 17 -8 32 -17 32 -22 0 -5 6 -9 13 -9 11 0 141 -90 196 -135 56 -47 152
-149 202 -215 19 -25 37 -46 42 -48 4 -2 7 -8 7 -13 0 -9 36 -65 50 -79 16
-16 100 -180 92 -180 -4 0 -2 -4 4 -8 11 -7 31 -48 59 -119 15 -37 15 -96 1
-110 -3 -3 -1 -14 4 -24 6 -10 7 -20 2 -23 -12 -7 -1 -163 13 -185 3 -6 9 -24
11 -38 5 -28 71 -174 83 -183 3 -3 20 -23 36 -45 30 -41 95 -110 95 -101 0 3
12 -6 28 -21 15 -14 36 -29 47 -34 11 -5 35 -18 53 -29 17 -11 32 -17 32 -15
0 3 11 -2 25 -11 14 -9 25 -13 25 -9 0 4 6 3 13 -3 20 -17 136 -35 217 -34 71
0 89 2 150 17 14 3 36 8 49 11 13 3 34 10 45 17 12 6 24 12 29 13 4 1 10 3 15
4 4 1 10 2 15 1 4 0 7 3 7 9 0 5 15 16 33 25 60 28 183 144 214 202 9 18 21
33 26 33 4 0 6 4 2 9 -3 5 1 16 9 24 14 14 49 107 60 158 3 13 7 35 10 48 8
37 9 140 1 201 -5 44 -2 65 14 103 11 26 19 48 18 50 -1 1 8 18 21 38 12 20
22 44 22 53 0 9 5 16 10 16 6 0 10 7 10 15 0 8 5 15 12 15 6 0 9 3 5 6 -6 7
102 189 132 221 12 12 21 25 21 28 0 12 90 105 157 163 69 59 169 132 182 132
6 0 11 5 11 10 0 6 7 10 15 10 8 0 15 3 15 8 0 4 10 12 23 18 70 35 133 68
137 73 3 3 10 7 15 8 6 1 42 16 80 34 39 18 76 32 83 32 6 0 12 4 12 9 0 5 4
6 10 3 38 -24 230 -20 296 6 16 6 36 12 45 14 30 6 113 47 164 81 61 40 111
87 151 140 16 21 31 41 34 44 10 9 70 128 70 138 0 6 5 23 12 39 13 33 15 42
24 103 10 68 6 225 -6 225 -1 0 -4 14 -6 30 -6 43 -43 131 -80 195 -34 58
-154 190 -173 190 -6 0 -11 5 -11 10 0 6 -7 10 -15 10 -8 0 -15 5 -15 10 0 6
-7 10 -15 10 -8 0 -15 5 -15 10 0 6 -3 9 -7 8 -5 -1 -29 8 -55 20 -26 12 -53
22 -61 22 -7 0 -17 3 -21 7 -3 4 -15 8 -26 10 -36 6 -65 11 -65 13 0 7 -168 4
-205 -2 -25 -5 -52 -5 -60 -2 -8 4 -21 8 -29 10 -8 1 -18 9 -22 16 -5 7 -9 9
-9 5 0 -24 -356 183 -422 246 -16 14 -28 24 -28 21 0 -3 -11 5 -24 18 -12 13
-34 33 -47 44 -13 12 -42 43 -64 68 -22 26 -52 60 -67 77 -16 17 -28 34 -28
38 0 4 -8 16 -17 27 -20 22 -26 32 -75 114 -17 30 -31 58 -30 63 1 4 -3 7 -9
7 -5 0 -8 4 -5 9 4 5 2 11 -3 13 -5 1 -11 10 -13 18 -2 8 -5 17 -8 20 -11 11
-63 130 -63 142 1 7 4 31 9 53 10 54 6 250 -6 250 -2 0 -7 19 -15 59 -3 16
-15 46 -26 67 -11 22 -17 39 -14 39 3 0 -10 22 -29 49 -19 27 -32 52 -29 55 4
3 -1 6 -10 6 -10 0 -17 4 -17 10 0 5 -11 20 -24 33 -14 14 -22 28 -19 31 4 3
0 6 -8 6 -9 0 -28 14 -44 30 -16 17 -35 30 -42 30 -7 0 -13 4 -13 8 0 7 -81
53 -100 58 -10 2 -45 16 -66 26 -12 6 -37 12 -55 13 -19 2 -34 4 -34 5 0 1
-20 4 -45 6 -25 2 -53 6 -62 8 -9 2 -18 3 -20 1z"/>
<path d="M7201 8122 c-36 -3 -42 -6 -38 -21 2 -10 0 -26 -5 -35 -5 -9 -5 -16
0 -16 4 0 7 -13 6 -30 l-2 -30 216 0 217 0 -1 -405 c-1 -289 2 -405 10 -406
38 -6 142 -4 146 2 3 4 5 187 4 408 l0 401 215 2 216 3 1 63 c1 34 -1 62 -5
63 -27 2 -946 3 -980 1z"/>
<path d="M8473 8122 c-13 -2 -23 -9 -23 -15 -5 -170 -3 -687 3 -687 5 0 5 -5
1 -11 -5 -9 -8 -146 -4 -225 0 -7 143 -10 458 -10 l457 1 1 66 1 65 -379 0
-378 -1 2 150 3 149 63 1 c34 0 62 -4 62 -8 0 -5 6 -5 13 0 17 10 227 10 227
-1 0 -5 6 -4 13 1 6 6 26 9 43 7 l31 -2 2 64 c2 56 0 64 -16 65 -10 0 -114 0
-230 0 l-213 -1 0 130 0 130 369 0 c274 0 372 3 377 12 12 20 10 99 -4 110
-11 10 -818 19 -879 10z"/>
<path d="M9764 8122 c-21 -3 -21 -4 -21 -472 0 -259 3 -471 6 -471 3 -1 38 -2
78 -4 58 -1 72 1 75 14 2 9 3 91 3 184 0 92 2 167 5 168 47 5 220 2 220 -4 0
-4 8 -3 19 2 14 8 25 4 51 -19 19 -17 38 -30 43 -30 6 0 8 -3 4 -6 -3 -3 17
-27 45 -52 28 -26 86 -81 128 -122 156 -151 126 -135 256 -136 63 0 114 1 114
4 0 2 -19 21 -42 41 -23 20 -52 45 -64 56 -12 12 -37 32 -55 45 -17 14 -46 39
-63 55 -18 17 -48 42 -68 57 -35 27 -118 104 -118 110 0 2 37 2 82 1 96 -3
164 12 194 41 43 42 51 81 49 251 -2 182 -5 198 -40 235 -46 48 -89 52 -501
54 -208 0 -388 0 -400 -2z m744 -140 c2 -7 10 -12 18 -12 9 0 12 -4 9 -10 -3
-5 -3 -16 2 -22 11 -19 11 -156 0 -206 -5 -24 -18 -47 -29 -53 -14 -8 -427
-14 -589 -9 -13 0 -15 21 -15 158 0 86 3 159 7 162 5 3 139 5 300 5 216 -1
294 -4 297 -13z"/>
<path d="M11180 8122 l-45 -3 2 -457 c1 -251 2 -464 2 -473 1 -13 15 -16 80
-15 l80 1 -1 122 c0 66 3 126 6 132 4 6 4 11 -1 11 -9 0 -9 87 0 96 3 4 66 6
139 6 l133 1 99 -97 c54 -53 99 -96 100 -96 1 0 43 -40 93 -88 l90 -88 117 0
c64 0 116 4 116 8 0 4 -3 8 -7 8 -5 0 -22 12 -38 28 -43 39 -103 90 -165 142
-29 25 -64 55 -77 68 -13 13 -23 20 -23 16 0 -3 -12 7 -27 23 -16 16 -41 39
-57 51 l-29 22 29 1 c140 2 202 8 223 20 26 15 76 59 67 59 -3 0 -1 12 5 28
13 34 18 242 6 242 -5 0 -5 6 1 13 9 12 9 41 -2 102 -6 32 -46 85 -64 85 -6 0
-12 4 -14 9 -1 5 -29 13 -62 16 -58 7 -691 13 -776 7z m695 -131 c47 -4 59
-26 65 -121 3 -50 1 -90 -3 -90 -5 0 -5 -4 -2 -10 3 -5 3 -25 0 -44 -5 -25
-15 -38 -34 -46 -17 -7 -129 -12 -313 -13 l-286 -2 -5 28 c-2 15 0 27 5 27 5
0 6 6 1 12 -8 14 -6 174 2 189 4 5 2 9 -2 9 -5 0 -7 15 -5 33 l4 32 276 -1
c152 -1 286 -2 297 -3z"/>
<path d="M12931 8122 c-29 -4 -46 -20 -55 -50 -4 -12 -12 -22 -17 -22 -5 0 -8
-3 -7 -7 2 -8 -4 -19 -62 -123 -17 -30 -37 -68 -46 -85 -8 -16 -25 -48 -37
-70 -13 -22 -38 -69 -57 -105 -19 -36 -37 -67 -40 -70 -4 -3 -12 -20 -19 -37
-8 -18 -18 -33 -23 -33 -5 0 -7 -4 -4 -8 2 -4 -11 -32 -30 -62 -18 -30 -34
-59 -34 -63 0 -5 -9 -21 -20 -37 -11 -15 -17 -30 -13 -34 3 -3 1 -6 -5 -6 -7
0 -12 -5 -12 -10 0 -6 -11 -27 -24 -48 -12 -20 -26 -47 -30 -58 -6 -21 -4 -21
71 -20 l78 2 36 70 c20 39 48 91 61 115 l25 44 314 0 c304 0 314 0 329 -20 25
-33 40 -64 40 -80 0 -8 3 -15 8 -15 4 0 18 -25 32 -55 14 -30 30 -56 35 -56
43 -6 175 -4 175 3 0 4 -5 8 -11 8 -5 0 -7 5 -4 10 3 6 1 10 -4 10 -6 0 -11 5
-11 10 0 6 -11 28 -24 49 -14 21 -22 42 -19 45 4 3 1 6 -5 6 -6 0 -16 16 -23
35 -7 19 -16 35 -19 35 -4 0 -17 23 -29 50 -12 28 -27 50 -32 50 -6 0 -8 4 -5
9 3 5 -3 19 -13 32 -10 13 -22 35 -26 49 -4 14 -11 27 -15 30 -7 5 -43 69 -94
165 -12 22 -24 42 -28 45 -7 6 -25 50 -26 64 0 5 -5 12 -11 15 -11 7 -78 124
-88 154 -3 9 -9 17 -14 17 -5 0 -9 6 -9 14 0 33 -72 50 -159 38z m71 -152 c7
-16 17 -30 22 -30 4 0 6 -6 3 -14 -3 -8 -2 -16 2 -18 4 -2 34 -52 66 -113 31
-60 66 -124 76 -141 10 -17 16 -33 14 -36 -3 -3 1 -11 10 -18 8 -7 15 -19 15
-26 0 -8 5 -14 10 -14 6 0 10 -8 10 -17 0 -9 -3 -14 -6 -11 -3 4 -18 2 -34 -2
-16 -4 -31 -6 -33 -3 -3 2 -100 4 -216 3 -186 -1 -210 1 -205 15 3 8 10 15 16
15 5 0 7 4 3 9 -3 5 2 16 10 24 8 9 15 23 15 31 0 9 5 16 11 16 5 0 8 4 5 8
-3 5 4 19 15 30 11 12 17 22 14 22 -3 0 17 42 45 93 27 50 62 118 77 149 16
32 31 57 35 58 3 0 12 -13 20 -30z"/>
<path d="M7385 6406 c-2 -6 -3 -69 -1 -141 1 -71 -2 -136 -7 -142 -6 -8 -6
-13 1 -13 11 0 9 -46 -2 -57 -3 -3 -1 -12 5 -20 9 -10 8 -17 -1 -28 -7 -9 -8
-15 -2 -15 11 0 9 -46 -2 -57 -3 -3 -1 -12 5 -20 9 -10 8 -17 -1 -28 -7 -9 -8
-15 -2 -15 11 0 9 -46 -2 -57 -3 -3 -1 -12 5 -20 9 -10 8 -17 -1 -28 -7 -9 -8
-15 -2 -15 11 0 9 -46 -2 -57 -3 -3 -1 -12 5 -20 9 -10 8 -17 -1 -28 -7 -8 -8
-15 -4 -15 5 0 9 -36 8 -80 l-1 -80 81 0 81 0 -1 465 c0 255 -4 468 -8 472
-12 12 -147 11 -151 -1z"/>
<path d="M8423 6353 c1 -34 6 -64 12 -66 5 -2 102 -3 215 -3 l205 1 0 -407
c-1 -341 2 -408 13 -410 8 -2 44 -2 81 0 l66 3 0 407 0 407 205 1 c113 1 211
2 218 3 13 1 18 120 5 122 -5 1 -236 2 -515 3 l-506 2 1 -63z"/>
<path d="M9749 6395 c0 -11 -2 -224 -2 -473 l-2 -452 50 0 c58 -1 683 -1 795
0 l76 0 -1 61 c0 53 -3 63 -20 69 -11 4 -30 3 -43 -1 -14 -6 -21 -5 -17 0 3 6
-6 6 -24 1 -16 -4 -32 -5 -35 -2 -10 10 -46 9 -46 -1 0 -6 -5 -6 -12 1 -7 5
-22 6 -33 2 -11 -4 -30 -4 -42 1 -13 5 -25 4 -28 -2 -4 -5 -12 -6 -18 -2 -18
11 -47 11 -47 -1 0 -6 -4 -6 -11 1 -8 8 -20 8 -35 3 -14 -6 -26 -6 -29 0 -3 5
-15 6 -28 1 -12 -5 -32 -5 -44 0 -13 5 -25 4 -28 -2 -4 -5 -12 -6 -18 -2 -18
11 -47 11 -47 -1 0 -6 -4 -6 -11 1 -8 8 -20 8 -35 3 -13 -5 -24 -6 -24 -2 0 5
-18 7 -40 5 -40 -3 -40 -3 -41 35 -1 43 -1 146 0 214 l1 46 68 1 c37 0 76 0
87 0 31 0 88 0 105 1 8 1 36 -1 63 -3 29 -2 47 0 47 7 0 7 3 7 8 1 4 -5 16 -9
27 -9 11 1 28 2 37 3 14 1 17 11 15 64 l-2 62 -215 1 c-118 1 -222 2 -230 3
-12 1 -15 17 -13 88 1 49 2 106 3 128 l0 40 375 0 376 0 -3 65 -3 65 -452 0
c-448 1 -453 0 -454 -20z"/>
<path d="M11237 6414 c-1 -1 -15 -4 -32 -7 -57 -9 -85 -19 -79 -28 3 -5 1 -9
-5 -9 -15 0 -42 -44 -49 -82 -4 -18 -7 -186 -7 -372 0 -263 3 -340 13 -344 6
-2 12 -11 12 -21 0 -35 61 -72 123 -75 15 0 27 -3 27 -6 0 -5 471 -4 605 1
150 6 186 50 190 230 1 59 -1 108 -4 107 -3 0 -9 1 -13 2 -18 6 -25 7 -73 14
-27 5 -54 9 -60 9 -6 1 -11 -41 -11 -108 -1 -60 -2 -112 -3 -115 0 -3 -91 -5
-201 -5 -127 0 -200 -4 -200 -10 0 -7 -3 -7 -8 0 -9 13 -105 13 -114 0 -5 -7
-8 -7 -8 0 0 6 -21 10 -47 9 -27 0 -53 1 -59 3 -8 3 -11 103 -10 341 l1 337
325 0 325 0 0 -105 0 -105 25 2 c14 1 34 3 45 6 11 2 36 7 56 11 l36 6 -3 100
c-4 138 -32 186 -124 208 -15 4 -669 9 -673 6z"/>
<path d="M12485 6404 c-10 -8 -14 -14 -9 -14 7 0 10 -161 10 -457 l-1 -458 40
-5 c22 -3 58 -3 81 -2 l40 4 1 194 c1 107 2 202 2 212 1 16 25 17 369 17 l367
0 3 -212 c2 -194 4 -213 20 -214 24 -2 136 2 138 4 5 5 6 94 5 503 l-1 440
-77 0 -78 -1 -3 -192 -2 -193 -33 -1 c-44 -1 -656 -1 -687 0 l-25 1 1 190 c1
104 -2 190 -5 191 -46 8 -141 4 -156 -7z"/>
<path d="M7929 6025 c-1 0 -2 -30 -3 -67 -2 -62 0 -68 19 -68 25 -1 263 -1
331 0 l51 0 -2 63 c-2 34 -3 64 -4 67 -1 4 -369 8 -392 5z"/>
</g>
</svg>
